<svg width="318" height="53" viewBox="0 0 318 53" fill="none" xmlns="http://www.w3.org/2000/svg">
<path d="M149.605 10.1003V7.23829H140.099V10.1003H143.189V22.7143H146.6V10.1003H149.605Z" fill="#F8BC31"/>
<path d="M160.829 22.7143V17.2235C160.829 15.0399 159.828 13.3227 157.355 13.3227C156.268 13.3227 155.309 13.7255 154.712 14.5311V7.23829H151.408V22.7143H154.712V17.9019C154.712 16.7783 155.266 16.0787 156.225 16.0787C157.227 16.0787 157.526 16.7783 157.526 18.0079V22.7143H160.829Z" fill="#F8BC31"/>
<path d="M171.999 21.4423L170.592 19.6615C169.804 20.3187 168.951 20.6367 167.523 20.6367C166.223 20.6367 165.562 19.7675 165.456 18.7075H171.893C171.893 15.3791 169.91 13.3227 166.99 13.3227C164.411 13.3227 162.365 15.0187 162.365 18.0715C162.365 21.5483 164.838 22.9687 167.523 22.9687C169.186 22.9687 170.614 22.5871 171.999 21.4423ZM168.504 16.9691H165.477C165.648 16.0999 166.01 15.4427 166.948 15.4427C167.822 15.4427 168.418 16.0363 168.504 16.9691Z" fill="#F8BC31"/>
<path d="M190.575 18.3259C190.575 16.5451 189.211 14.9551 187.42 14.7007C188.763 14.1919 189.765 12.9411 189.765 11.3935C189.765 8.78588 187.612 7.23829 184.351 7.23829H178.959V22.7143H184.863C188.358 22.7143 190.575 21.1031 190.575 18.3259ZM186.418 11.7963C186.418 13.0683 185.609 13.6831 184.031 13.6831H182.369V10.1003H184.031C185.545 10.1003 186.418 10.5031 186.418 11.7963ZM187.058 18.1351C187.058 19.2163 186.461 19.8523 184.863 19.8523H182.369V16.5451H184.863C186.269 16.5451 187.058 17.0539 187.058 18.1351Z" fill="#F8BC31"/>
<path d="M200.404 14.1919C199.743 13.5347 198.997 13.3227 198.187 13.3227C197.1 13.3227 196.248 14.0223 195.8 14.7855V13.5771H192.496V22.7143H195.8V18.2199C195.8 17.2447 196.248 16.3967 197.313 16.3967C197.867 16.3967 198.23 16.5451 198.784 16.9691L200.404 14.1919Z" fill="#F8BC31"/>
<path d="M210.637 18.1139C210.637 15.3367 208.357 13.3227 205.671 13.3227C203.028 13.3227 200.726 15.4215 200.726 18.1351C200.726 20.9123 202.986 22.9687 205.692 22.9687C208.335 22.9687 210.637 20.8275 210.637 18.1139ZM207.419 18.1139C207.419 19.1739 206.843 20.3611 205.692 20.3611C204.542 20.3611 203.945 19.1951 203.945 18.1351C203.945 17.0963 204.542 15.9303 205.671 15.9303C206.865 15.9303 207.419 17.0963 207.419 18.1139Z" fill="#F8BC31"/>
<path d="M217.875 22.7143V19.9583H217.065C216.404 19.9583 216.042 19.4707 216.042 18.7711V16.0151H217.598V13.5771H216.042V9.78229H212.738V13.5771H211.587V16.0151H212.738V19.3647C212.738 21.2939 213.953 22.7143 215.808 22.7143H217.875Z" fill="#F8BC31"/>
<path d="M229.038 22.7143V17.2235C229.038 15.0399 228.037 13.3227 225.564 13.3227C224.477 13.3227 223.518 13.7255 222.921 14.5311V7.23829H219.618V22.7143H222.921V17.9019C222.921 16.7783 223.475 16.0787 224.435 16.0787C225.436 16.0787 225.735 16.7783 225.735 18.0079V22.7143H229.038Z" fill="#F8BC31"/>
<path d="M240.208 21.4423L238.801 19.6615C238.013 20.3187 237.16 20.6367 235.732 20.6367C234.432 20.6367 233.771 19.7675 233.665 18.7075H240.102C240.102 15.3791 238.119 13.3227 235.199 13.3227C232.62 13.3227 230.574 15.0187 230.574 18.0715C230.574 21.5483 233.047 22.9687 235.732 22.9687C237.395 22.9687 238.823 22.5871 240.208 21.4423ZM236.713 16.9691H233.686C233.857 16.0999 234.219 15.4427 235.157 15.4427C236.031 15.4427 236.627 16.0363 236.713 16.9691Z" fill="#F8BC31"/>
<path d="M249.755 14.1919C249.094 13.5347 248.348 13.3227 247.538 13.3227C246.451 13.3227 245.599 14.0223 245.151 14.7855V13.5771H241.847V22.7143H245.151V18.2199C245.151 17.2447 245.599 16.3967 246.664 16.3967C247.219 16.3967 247.581 16.5451 248.135 16.9691L249.755 14.1919Z" fill="#F8BC31"/>
<path d="M260.302 22.7143V17.2235C260.302 15.0399 259.3 13.3227 256.827 13.3227C255.74 13.3227 254.781 13.7255 254.185 14.5311V7.23829H250.881V22.7143H254.185V17.9019C254.185 16.7783 254.739 16.0787 255.698 16.0787C256.7 16.0787 256.998 16.7783 256.998 18.0079V22.7143H260.302Z" fill="#F8BC31"/>
<path d="M271.749 18.1139C271.749 15.3367 269.468 13.3227 266.782 13.3227C264.14 13.3227 261.838 15.4215 261.838 18.1351C261.838 20.9123 264.097 22.9687 266.804 22.9687C269.447 22.9687 271.749 20.8275 271.749 18.1139ZM268.53 18.1139C268.53 19.1739 267.955 20.3611 266.804 20.3611C265.653 20.3611 265.056 19.1951 265.056 18.1351C265.056 17.0963 265.653 15.9303 266.782 15.9303C267.976 15.9303 268.53 17.0963 268.53 18.1139Z" fill="#F8BC31"/>
<path d="M282.718 18.1139C282.718 15.3367 280.437 13.3227 277.752 13.3227C275.109 13.3227 272.807 15.4215 272.807 18.1351C272.807 20.9123 275.066 22.9687 277.773 22.9687C280.416 22.9687 282.718 20.8275 282.718 18.1139ZM279.499 18.1139C279.499 19.1739 278.924 20.3611 277.773 20.3611C276.622 20.3611 276.025 19.1951 276.025 18.1351C276.025 17.0963 276.622 15.9303 277.752 15.9303C278.945 15.9303 279.499 17.0963 279.499 18.1139Z" fill="#F8BC31"/>
<path d="M294.156 22.7143V7.23829H290.852V14.5099C290.341 13.7891 289.19 13.3227 288.082 13.3227C285.503 13.3227 283.776 15.6547 283.776 18.1563C283.776 20.7215 285.503 22.9687 288.082 22.9687C289.19 22.9687 290.341 22.5023 290.852 21.7815V22.7143H294.156ZM290.852 18.1139C290.852 19.3647 290.106 20.2763 288.955 20.2763C287.868 20.2763 287.08 19.3647 287.08 18.1139C287.08 16.8631 287.868 16.0151 288.955 16.0151C290.085 16.0151 290.852 16.8843 290.852 18.1139Z" fill="#F8BC31"/>
<path d="M310.443 18.1139C310.443 15.3367 308.162 13.3227 305.477 13.3227C302.834 13.3227 300.532 15.4215 300.532 18.1351C300.532 20.9123 302.791 22.9687 305.498 22.9687C308.141 22.9687 310.443 20.8275 310.443 18.1139ZM307.224 18.1139C307.224 19.1739 306.649 20.3611 305.498 20.3611C304.347 20.3611 303.75 19.1951 303.75 18.1351C303.75 17.0963 304.347 15.9303 305.477 15.9303C306.67 15.9303 307.224 17.0963 307.224 18.1139Z" fill="#F8BC31"/>
<path d="M317 16.0151V13.5771H315.785V10.7787C315.785 10.2063 315.913 9.73988 316.361 9.73988H316.893V6.98388H315.167C313.398 6.98388 312.481 8.10748 312.481 9.80348V13.5771H311.33V16.0151H312.481V22.7143H315.785V16.0151H317Z" fill="#F8BC31"/>
<path d="M154.038 46.2099L152.077 43.9839C151.075 44.9167 150.116 45.7435 148.155 45.7435C145.278 45.7435 143.722 43.8143 143.722 40.6343C143.722 37.7935 145.427 35.6947 148.091 35.6947C149.541 35.6947 150.734 36.2035 151.779 37.2423L153.697 35.0163C152.099 33.3839 150.372 32.7267 148.091 32.7267C143.722 32.7267 140.205 35.9915 140.205 40.6343C140.205 45.5951 143.424 48.7115 148.155 48.7115C150.862 48.7115 152.589 47.7575 154.038 46.2099Z" fill="#F8BC31"/>
<path d="M165.18 48.4571V42.9663C165.18 40.7827 164.178 39.0655 161.705 39.0655C160.618 39.0655 159.659 39.4683 159.062 40.2739V32.9811H155.759V48.4571H159.062V43.6447C159.062 42.5211 159.617 41.8215 160.576 41.8215C161.577 41.8215 161.876 42.5211 161.876 43.7507V48.4571H165.18Z" fill="#F8BC31"/>
<path d="M170.552 37.8359V34.8255H167.248V37.8359H170.552ZM170.552 48.4571V39.3199H167.248V48.4571H170.552Z" fill="#F8BC31"/>
<path d="M186.655 35.8431V32.9811H177.148V35.8431H180.239V48.4571H183.649V35.8431H186.655Z" fill="#F8BC31"/>
<path d="M197.879 48.4571V42.9663C197.879 40.7827 196.877 39.0655 194.405 39.0655C193.318 39.0655 192.359 39.4683 191.762 40.2739V32.9811H188.458V48.4571H191.762V43.6447C191.762 42.5211 192.316 41.8215 193.275 41.8215C194.277 41.8215 194.575 42.5211 194.575 43.7507V48.4571H197.879Z" fill="#F8BC31"/>
<path d="M209.049 47.1851L207.642 45.4043C206.854 46.0615 206.001 46.3795 204.573 46.3795C203.273 46.3795 202.612 45.5103 202.506 44.4503H208.942C208.942 41.1219 206.96 39.0655 204.04 39.0655C201.461 39.0655 199.415 40.7615 199.415 43.8143C199.415 47.2911 201.887 48.7115 204.573 48.7115C206.235 48.7115 207.664 48.3299 209.049 47.1851ZM205.553 42.7119H202.527C202.697 41.8427 203.06 41.1855 203.998 41.1855C204.871 41.1855 205.468 41.7791 205.553 42.7119Z" fill="#F8BC31"/>
<path d="M216.272 48.4571V45.7011H215.462C214.802 45.7011 214.439 45.2135 214.439 44.5139V41.7579H215.995V39.3199H214.439V35.5251H211.136V39.3199H209.985V41.7579H211.136V45.1075C211.136 47.0367 212.351 48.4571 214.205 48.4571H216.272Z" fill="#F8BC31"/>
<path d="M227.306 48.4571V42.6483C227.306 40.0407 225.792 39.0655 222.745 39.0655C221.082 39.0655 219.547 39.3199 218.333 39.9983L219.356 41.9699C220.315 41.4823 221.359 41.1855 222.638 41.1855C223.576 41.1855 224.002 41.3975 224.002 42.0335V42.3515C221.018 42.4787 217.501 43.0299 217.501 45.8707C217.501 47.6091 219.057 48.7115 220.826 48.7115C222.425 48.7115 223 48.4571 224.002 47.7575V48.4571H227.306ZM224.002 45.7223C223.469 46.1887 222.915 46.3795 222.084 46.3795C221.551 46.3795 221.018 46.0615 221.018 45.5315C221.018 44.5139 222.595 44.1959 224.002 44.1959V45.7223Z" fill="#F8BC31"/>
<path d="M245.549 37.5391C245.549 34.6347 243.332 32.9811 239.858 32.9811H234.7V48.4571H238.11V42.3091H239.858C243.375 42.3091 245.549 40.4647 245.549 37.5391ZM242.138 37.6027C242.138 38.8535 241.392 39.4471 239.858 39.4471H238.11V35.8431H239.858C241.371 35.8431 242.138 36.3307 242.138 37.6027Z" fill="#F8BC31"/>
<path d="M253.548 45.8071C253.548 44.0051 251.907 43.2207 250.564 42.7331C249.669 42.3939 248.923 42.1607 248.923 41.8427C248.923 41.4399 249.413 41.3551 249.925 41.3551C250.649 41.3551 251.459 41.5035 252.269 41.9487L253.207 39.9135C252.12 39.3199 251.246 39.0655 249.861 39.0655C247.601 39.0655 246.024 40.0407 246.024 41.8639C246.024 43.8779 247.708 44.4291 248.944 44.8955C249.669 45.1499 250.244 45.3831 250.244 45.8707C250.244 46.1675 249.882 46.3795 249.179 46.3795C248.305 46.3795 247.516 46.0403 246.77 45.5951L245.704 47.6727C246.685 48.3723 248.241 48.7115 249.669 48.7115C251.672 48.7115 253.548 47.9059 253.548 45.8071Z" fill="#F8BC31"/>
<path d="M258.452 37.8359V34.8255H255.148V37.8359H258.452ZM258.452 48.4571V39.3199H255.148V48.4571H258.452Z" fill="#F8BC31"/>
<path d="M36.6797 45.4286L23.5807 23.7319L34.323 5.63314H24.5124L18.7576 16.0454L12.674 5.63314H2.97307L13.825 23.7319L1 45.4286H10.7557L18.7576 31.3639L26.8691 45.4286H36.6797Z" fill="#F8BC31"/>
<path d="M77.8286 25.3673C77.8286 13.5377 69.7719 4.97897 57.2757 4.97897C44.8892 4.97897 36.6133 13.9193 36.6133 25.3673C36.6133 36.7063 44.7796 46.0827 57.1661 46.0827C69.5526 46.0827 77.8286 36.8698 77.8286 25.3673ZM68.7853 25.3673C68.7853 32.0726 64.4007 38.4507 57.1661 38.4507C50.9181 38.4507 45.6565 32.6722 45.6565 25.3673C45.6565 18.7166 50.4248 12.611 57.2757 12.611C64.2363 12.611 68.7853 18.3895 68.7853 25.3673Z" fill="#F8BC31"/>
<path d="M113.753 5.63314H103.723L96.4336 19.4253C95.9951 20.2975 95.6662 21.5513 95.6662 21.5513C95.6662 21.5513 95.3374 20.2975 94.8989 19.4253L87.5547 5.63314H77.5798L91.172 29.2923V45.4286H99.9412V29.2923L113.753 5.63314Z" fill="#F8BC31"/>
<path d="M124.128 0V53M149.605 10.1003V7.23829H140.099V10.1003H143.189V22.7143H146.6V10.1003H149.605ZM160.829 22.7143V17.2235C160.829 15.0399 159.828 13.3227 157.355 13.3227C156.268 13.3227 155.309 13.7255 154.712 14.5311V7.23829H151.408V22.7143H154.712V17.9019C154.712 16.7783 155.266 16.0787 156.225 16.0787C157.227 16.0787 157.526 16.7783 157.526 18.0079V22.7143H160.829ZM171.999 21.4423L170.592 19.6615C169.804 20.3187 168.951 20.6367 167.523 20.6367C166.223 20.6367 165.562 19.7675 165.456 18.7075H171.893C171.893 15.3791 169.91 13.3227 166.99 13.3227C164.411 13.3227 162.365 15.0187 162.365 18.0715C162.365 21.5483 164.838 22.9687 167.523 22.9687C169.186 22.9687 170.614 22.5871 171.999 21.4423ZM168.504 16.9691H165.477C165.648 16.0999 166.01 15.4427 166.948 15.4427C167.822 15.4427 168.418 16.0363 168.504 16.9691ZM190.575 18.3259C190.575 16.5451 189.211 14.9551 187.42 14.7007C188.763 14.1919 189.765 12.9411 189.765 11.3935C189.765 8.78588 187.612 7.23829 184.351 7.23829H178.959V22.7143H184.863C188.358 22.7143 190.575 21.1031 190.575 18.3259ZM186.418 11.7963C186.418 13.0683 185.609 13.6831 184.031 13.6831H182.369V10.1003H184.031C185.545 10.1003 186.418 10.5031 186.418 11.7963ZM187.058 18.1351C187.058 19.2163 186.461 19.8523 184.863 19.8523H182.369V16.5451H184.863C186.269 16.5451 187.058 17.0539 187.058 18.1351ZM200.404 14.1919C199.743 13.5347 198.997 13.3227 198.187 13.3227C197.1 13.3227 196.248 14.0223 195.8 14.7855V13.5771H192.496V22.7143H195.8V18.2199C195.8 17.2447 196.248 16.3967 197.313 16.3967C197.867 16.3967 198.23 16.5451 198.784 16.9691L200.404 14.1919ZM210.637 18.1139C210.637 15.3367 208.357 13.3227 205.671 13.3227C203.028 13.3227 200.726 15.4215 200.726 18.1351C200.726 20.9123 202.986 22.9687 205.692 22.9687C208.335 22.9687 210.637 20.8275 210.637 18.1139ZM207.419 18.1139C207.419 19.1739 206.843 20.3611 205.692 20.3611C204.542 20.3611 203.945 19.1951 203.945 18.1351C203.945 17.0963 204.542 15.9303 205.671 15.9303C206.865 15.9303 207.419 17.0963 207.419 18.1139ZM217.875 22.7143V19.9583H217.065C216.404 19.9583 216.042 19.4707 216.042 18.7711V16.0151H217.598V13.5771H216.042V9.78229H212.738V13.5771H211.587V16.0151H212.738V19.3647C212.738 21.2939 213.953 22.7143 215.808 22.7143H217.875ZM229.038 22.7143V17.2235C229.038 15.0399 228.037 13.3227 225.564 13.3227C224.477 13.3227 223.518 13.7255 222.921 14.5311V7.23829H219.618V22.7143H222.921V17.9019C222.921 16.7783 223.475 16.0787 224.435 16.0787C225.436 16.0787 225.735 16.7783 225.735 18.0079V22.7143H229.038ZM240.208 21.4423L238.801 19.6615C238.013 20.3187 237.16 20.6367 235.732 20.6367C234.432 20.6367 233.771 19.7675 233.665 18.7075H240.102C240.102 15.3791 238.119 13.3227 235.199 13.3227C232.62 13.3227 230.574 15.0187 230.574 18.0715C230.574 21.5483 233.047 22.9687 235.732 22.9687C237.395 22.9687 238.823 22.5871 240.208 21.4423ZM236.713 16.9691H233.686C233.857 16.0999 234.219 15.4427 235.157 15.4427C236.031 15.4427 236.627 16.0363 236.713 16.9691ZM249.755 14.1919C249.094 13.5347 248.348 13.3227 247.538 13.3227C246.451 13.3227 245.599 14.0223 245.151 14.7855V13.5771H241.847V22.7143H245.151V18.2199C245.151 17.2447 245.599 16.3967 246.664 16.3967C247.219 16.3967 247.581 16.5451 248.135 16.9691L249.755 14.1919ZM260.302 22.7143V17.2235C260.302 15.0399 259.3 13.3227 256.827 13.3227C255.74 13.3227 254.781 13.7255 254.185 14.5311V7.23829H250.881V22.7143H254.185V17.9019C254.185 16.7783 254.739 16.0787 255.698 16.0787C256.7 16.0787 256.998 16.7783 256.998 18.0079V22.7143H260.302ZM271.749 18.1139C271.749 15.3367 269.468 13.3227 266.782 13.3227C264.14 13.3227 261.838 15.4215 261.838 18.1351C261.838 20.9123 264.097 22.9687 266.804 22.9687C269.447 22.9687 271.749 20.8275 271.749 18.1139ZM268.53 18.1139C268.53 19.1739 267.955 20.3611 266.804 20.3611C265.653 20.3611 265.056 19.1951 265.056 18.1351C265.056 17.0963 265.653 15.9303 266.782 15.9303C267.976 15.9303 268.53 17.0963 268.53 18.1139ZM282.718 18.1139C282.718 15.3367 280.437 13.3227 277.752 13.3227C275.109 13.3227 272.807 15.4215 272.807 18.1351C272.807 20.9123 275.066 22.9687 277.773 22.9687C280.416 22.9687 282.718 20.8275 282.718 18.1139ZM279.499 18.1139C279.499 19.1739 278.924 20.3611 277.773 20.3611C276.622 20.3611 276.025 19.1951 276.025 18.1351C276.025 17.0963 276.622 15.9303 277.752 15.9303C278.945 15.9303 279.499 17.0963 279.499 18.1139ZM294.156 22.7143V7.23829H290.852V14.5099C290.341 13.7891 289.19 13.3227 288.082 13.3227C285.503 13.3227 283.776 15.6547 283.776 18.1563C283.776 20.7215 285.503 22.9687 288.082 22.9687C289.19 22.9687 290.341 22.5023 290.852 21.7815V22.7143H294.156ZM290.852 18.1139C290.852 19.3647 290.106 20.2763 288.955 20.2763C287.868 20.2763 287.08 19.3647 287.08 18.1139C287.08 16.8631 287.868 16.0151 288.955 16.0151C290.085 16.0151 290.852 16.8843 290.852 18.1139ZM310.443 18.1139C310.443 15.3367 308.162 13.3227 305.477 13.3227C302.834 13.3227 300.532 15.4215 300.532 18.1351C300.532 20.9123 302.791 22.9687 305.498 22.9687C308.141 22.9687 310.443 20.8275 310.443 18.1139ZM307.224 18.1139C307.224 19.1739 306.649 20.3611 305.498 20.3611C304.347 20.3611 303.75 19.1951 303.75 18.1351C303.75 17.0963 304.347 15.9303 305.477 15.9303C306.67 15.9303 307.224 17.0963 307.224 18.1139ZM317 16.0151V13.5771H315.785V10.7787C315.785 10.2063 315.913 9.73988 316.361 9.73988H316.893V6.98388H315.167C313.398 6.98388 312.481 8.10749 312.481 9.80348V13.5771H311.33V16.0151H312.481V22.7143H315.785V16.0151H317ZM154.038 46.2099L152.077 43.9839C151.075 44.9167 150.116 45.7435 148.155 45.7435C145.278 45.7435 143.722 43.8143 143.722 40.6343C143.722 37.7935 145.427 35.6947 148.091 35.6947C149.541 35.6947 150.734 36.2035 151.779 37.2423L153.697 35.0163C152.099 33.3839 150.372 32.7267 148.091 32.7267C143.722 32.7267 140.205 35.9915 140.205 40.6343C140.205 45.5951 143.424 48.7115 148.155 48.7115C150.862 48.7115 152.589 47.7575 154.038 46.2099ZM165.18 48.4571V42.9663C165.18 40.7827 164.178 39.0655 161.705 39.0655C160.618 39.0655 159.659 39.4683 159.062 40.2739V32.9811H155.759V48.4571H159.062V43.6447C159.062 42.5211 159.617 41.8215 160.576 41.8215C161.577 41.8215 161.876 42.5211 161.876 43.7507V48.4571H165.18ZM170.552 37.8359V34.8255H167.248V37.8359H170.552ZM170.552 48.4571V39.3199H167.248V48.4571H170.552ZM186.655 35.8431V32.9811H177.148V35.8431H180.239V48.4571H183.649V35.8431H186.655ZM197.879 48.4571V42.9663C197.879 40.7827 196.877 39.0655 194.405 39.0655C193.318 39.0655 192.359 39.4683 191.762 40.2739V32.9811H188.458V48.4571H191.762V43.6447C191.762 42.5211 192.316 41.8215 193.275 41.8215C194.277 41.8215 194.575 42.5211 194.575 43.7507V48.4571H197.879ZM209.049 47.1851L207.642 45.4043C206.854 46.0615 206.001 46.3795 204.573 46.3795C203.273 46.3795 202.612 45.5103 202.506 44.4503H208.942C208.942 41.1219 206.96 39.0655 204.04 39.0655C201.461 39.0655 199.415 40.7615 199.415 43.8143C199.415 47.2911 201.887 48.7115 204.573 48.7115C206.235 48.7115 207.664 48.3299 209.049 47.1851ZM205.553 42.7119H202.527C202.697 41.8427 203.06 41.1855 203.998 41.1855C204.871 41.1855 205.468 41.7791 205.553 42.7119ZM216.272 48.4571V45.7011H215.462C214.802 45.7011 214.439 45.2135 214.439 44.5139V41.7579H215.995V39.3199H214.439V35.5251H211.136V39.3199H209.985V41.7579H211.136V45.1075C211.136 47.0367 212.351 48.4571 214.205 48.4571H216.272ZM227.306 48.4571V42.6483C227.306 40.0407 225.792 39.0655 222.745 39.0655C221.082 39.0655 219.547 39.3199 218.333 39.9983L219.356 41.9699C220.315 41.4823 221.359 41.1855 222.638 41.1855C223.576 41.1855 224.002 41.3975 224.002 42.0335V42.3515C221.018 42.4787 217.501 43.0299 217.501 45.8707C217.501 47.6091 219.057 48.7115 220.826 48.7115C222.425 48.7115 223 48.4571 224.002 47.7575V48.4571H227.306ZM224.002 45.7223C223.469 46.1887 222.915 46.3795 222.084 46.3795C221.551 46.3795 221.018 46.0615 221.018 45.5315C221.018 44.5139 222.595 44.1959 224.002 44.1959V45.7223ZM245.549 37.5391C245.549 34.6347 243.332 32.9811 239.858 32.9811H234.7V48.4571H238.11V42.3091H239.858C243.375 42.3091 245.549 40.4647 245.549 37.5391ZM242.138 37.6027C242.138 38.8535 241.392 39.4471 239.858 39.4471H238.11V35.8431H239.858C241.371 35.8431 242.138 36.3307 242.138 37.6027ZM253.548 45.8071C253.548 44.0051 251.907 43.2207 250.564 42.7331C249.669 42.3939 248.923 42.1607 248.923 41.8427C248.923 41.4399 249.413 41.3551 249.925 41.3551C250.649 41.3551 251.459 41.5035 252.269 41.9487L253.207 39.9135C252.12 39.3199 251.246 39.0655 249.861 39.0655C247.601 39.0655 246.024 40.0407 246.024 41.8639C246.024 43.8779 247.708 44.4291 248.944 44.8955C249.669 45.1499 250.244 45.3831 250.244 45.8707C250.244 46.1675 249.882 46.3795 249.179 46.3795C248.305 46.3795 247.516 46.0403 246.77 45.5951L245.704 47.6727C246.685 48.3723 248.241 48.7115 249.669 48.7115C251.672 48.7115 253.548 47.9059 253.548 45.8071ZM258.452 37.8359V34.8255H255.148V37.8359H258.452ZM258.452 48.4571V39.3199H255.148V48.4571H258.452ZM36.6797 45.4286L23.5807 23.7319L34.323 5.63314H24.5124L18.7576 16.0454L12.674 5.63314H2.97307L13.825 23.7319L1 45.4286H10.7557L18.7576 31.3639L26.8691 45.4286H36.6797ZM77.8286 25.3673C77.8286 13.5377 69.7719 4.97897 57.2757 4.97897C44.8892 4.97897 36.6133 13.9193 36.6133 25.3673C36.6133 36.7063 44.7796 46.0827 57.1661 46.0827C69.5526 46.0827 77.8286 36.8698 77.8286 25.3673ZM68.7853 25.3673C68.7853 32.0726 64.4007 38.4507 57.1661 38.4507C50.9181 38.4507 45.6565 32.6722 45.6565 25.3673C45.6565 18.7166 50.4248 12.611 57.2757 12.611C64.2363 12.611 68.7853 18.3895 68.7853 25.3673ZM113.753 5.63314H103.723L96.4336 19.4253C95.9951 20.2975 95.6662 21.5513 95.6662 21.5513C95.6662 21.5513 95.3374 20.2975 94.8989 19.4253L87.5547 5.63314H77.5798L91.172 29.2923V45.4286H99.9412V29.2923L113.753 5.63314Z" stroke="#F8BC31"/>
</svg>
